<svg width="100" height="32" viewBox="0 0 100 32" fill="none" xmlns="http://www.w3.org/2000/svg">
<g clip-path="url(#clip0_2_5828)">
<path d="M31.999 0H-0.000976562V32H31.999V0Z" fill="white"/>
<path d="M25.069 15.6959L24.3543 18.3626H10.4023L6.60498 4.19458H9.36765L12.4476 15.6959H25.069Z" fill="#AD7E5C"/>
<path d="M23.925 19.9626L23.2103 22.6293H7.31965L6.60498 19.9626H23.925Z" fill="#518581"/>
<path d="M22.7805 24.2292L22.0659 26.8959H11.1165L10.4019 24.2292H22.7805Z" fill="#A6D8D1"/>
</g>
<path d="M41.1426 9.30748H43.6294V20.7361H49.4626V22.9303H41.1426V9.30748Z" fill="#151411"/>
<path d="M53.8871 23.1498C52.8388 23.1498 52.0037 22.8938 51.382 22.3818C50.7725 21.8698 50.4677 21.1749 50.4677 20.2972C50.4677 19.4561 50.7542 18.7612 51.3272 18.2126C51.9001 17.6641 52.7595 17.2983 53.9054 17.1155L56.8677 16.6401V16.3109C56.8677 15.8721 56.6971 15.5124 56.3557 15.2321C56.0266 14.9517 55.5877 14.8115 55.0392 14.8115C54.5272 14.8115 54.07 14.9517 53.6677 15.2321C53.2776 15.5002 52.9911 15.8599 52.8083 16.3109L50.8517 15.3601C51.1443 14.5799 51.6807 13.9521 52.4609 13.4766C53.2411 13.0012 54.131 12.7635 55.1306 12.7635C55.9351 12.7635 56.6483 12.9159 57.27 13.2206C57.9039 13.5132 58.3915 13.9338 58.7329 14.4823C59.0864 15.0187 59.2632 15.6282 59.2632 16.3109V22.9303H56.9957V21.8698C56.2155 22.7231 55.1793 23.1498 53.8871 23.1498ZM52.9546 20.2058C52.9546 20.5471 53.0826 20.8214 53.3386 21.0286C53.5946 21.2237 53.9237 21.3212 54.326 21.3212C55.0696 21.3212 55.6792 21.0896 56.1546 20.6263C56.63 20.1509 56.8677 19.5658 56.8677 18.8709V18.4686L54.3626 18.8892C53.8871 18.9867 53.5336 19.1452 53.302 19.3646C53.0704 19.5719 52.9546 19.8522 52.9546 20.2058Z" fill="#151411"/>
<path d="M61.4771 9.08806H63.8726V22.9303H61.4771V9.08806Z" fill="#151411"/>
<path d="M69.1014 23.1498C68.0531 23.1498 67.218 22.8938 66.5963 22.3818C65.9868 21.8698 65.682 21.1749 65.682 20.2972C65.682 19.4561 65.9685 18.7612 66.5414 18.2126C67.1144 17.6641 67.9738 17.2983 69.1197 17.1155L72.082 16.6401V16.3109C72.082 15.8721 71.9113 15.5124 71.57 15.2321C71.2409 14.9517 70.802 14.8115 70.2534 14.8115C69.7414 14.8115 69.2843 14.9517 68.882 15.2321C68.4919 15.5002 68.2054 15.8599 68.0226 16.3109L66.066 15.3601C66.3586 14.5799 66.895 13.9521 67.6752 13.4766C68.4553 13.0012 69.3452 12.7635 70.3449 12.7635C71.1494 12.7635 71.8626 12.9159 72.4843 13.2206C73.1182 13.5132 73.6058 13.9338 73.9472 14.4823C74.3007 15.0187 74.4774 15.6282 74.4774 16.3109V22.9303H72.21V21.8698C71.4298 22.7231 70.3936 23.1498 69.1014 23.1498ZM68.1689 20.2058C68.1689 20.5471 68.2969 20.8214 68.5529 21.0286C68.8089 21.2237 69.138 21.3212 69.5403 21.3212C70.2839 21.3212 70.8934 21.0896 71.3689 20.6263C71.8443 20.1509 72.082 19.5658 72.082 18.8709V18.4686L69.5769 18.8892C69.1014 18.9867 68.7479 19.1452 68.5163 19.3646C68.2847 19.5719 68.1689 19.8522 68.1689 20.2058Z" fill="#151411"/>
<path d="M80.4217 23.1315C79.4221 23.1315 78.5383 22.8938 77.7703 22.4183C77.0145 21.9429 76.4781 21.2907 76.1612 20.4618L77.9349 19.5475C78.2031 20.0839 78.5566 20.5044 78.9954 20.8092C79.4465 21.1018 79.9402 21.2481 80.4766 21.2481C80.9398 21.2481 81.2994 21.1566 81.5554 20.9738C81.8236 20.7787 81.9577 20.5166 81.9577 20.1875C81.9577 19.9071 81.848 19.6755 81.6286 19.4926C81.4091 19.2976 81.1227 19.1696 80.7691 19.1086L79.1417 18.8343C78.3006 18.6149 77.6484 18.2431 77.1852 17.7189C76.7341 17.1825 76.5086 16.5547 76.5086 15.8355C76.5086 15.2382 76.6671 14.7079 76.984 14.2446C77.301 13.7692 77.7398 13.4035 78.3006 13.1475C78.8735 12.8915 79.5196 12.7635 80.2389 12.7635C81.1531 12.7635 81.9577 12.9829 82.6526 13.4218C83.3474 13.8484 83.8533 14.4458 84.1703 15.2138L82.3966 16.1281C82.2015 15.7014 81.9029 15.3601 81.5006 15.1041C81.0983 14.8481 80.6533 14.7201 80.1657 14.7201C79.7634 14.7201 79.4404 14.8115 79.1966 14.9943C78.965 15.1772 78.8492 15.4149 78.8492 15.7075C78.8492 16.2439 79.2514 16.6035 80.056 16.7863L81.6469 17.0789C82.488 17.3105 83.1402 17.6884 83.6034 18.2126C84.0667 18.7368 84.2983 19.3585 84.2983 20.0778C84.2983 20.6751 84.1337 21.2054 83.8046 21.6686C83.4876 22.1319 83.0366 22.4915 82.4514 22.7475C81.8663 23.0035 81.1897 23.1315 80.4217 23.1315Z" fill="#151411"/>
<path d="M86.0843 12.9829H88.4797V22.9303H86.0843V12.9829ZM85.9014 10.2401C85.9014 9.8012 86.0233 9.45987 86.2671 9.21606C86.511 8.97225 86.8462 8.85034 87.2729 8.85034C87.7117 8.85034 88.0531 8.97225 88.2969 9.21606C88.5407 9.45987 88.6626 9.8012 88.6626 10.2401C88.6626 10.6667 88.5407 11.002 88.2969 11.2458C88.0652 11.4896 87.7239 11.6115 87.2729 11.6115C86.8462 11.6115 86.511 11.4896 86.2671 11.2458C86.0233 11.002 85.9014 10.6667 85.9014 10.2401Z" fill="#151411"/>
<path d="M93.7086 23.1498C92.6602 23.1498 91.8252 22.8938 91.2034 22.3818C90.5939 21.8698 90.2892 21.1749 90.2892 20.2972C90.2892 19.4561 90.5756 18.7612 91.1486 18.2126C91.7215 17.6641 92.581 17.2983 93.7269 17.1155L96.6892 16.6401V16.3109C96.6892 15.8721 96.5185 15.5124 96.1772 15.2321C95.848 14.9517 95.4091 14.8115 94.8606 14.8115C94.3486 14.8115 93.8914 14.9517 93.4892 15.2321C93.0991 15.5002 92.8126 15.8599 92.6297 16.3109L90.6732 15.3601C90.9657 14.5799 91.5021 13.9521 92.2823 13.4766C93.0625 13.0012 93.9524 12.7635 94.952 12.7635C95.7566 12.7635 96.4697 12.9159 97.0914 13.2206C97.7253 13.5132 98.213 13.9338 98.5543 14.4823C98.9078 15.0187 99.0846 15.6282 99.0846 16.3109V22.9303H96.8172V21.8698C96.037 22.7231 95.0008 23.1498 93.7086 23.1498ZM92.776 20.2058C92.776 20.5471 92.904 20.8214 93.16 21.0286C93.416 21.2237 93.7452 21.3212 94.1474 21.3212C94.8911 21.3212 95.5006 21.0896 95.976 20.6263C96.4514 20.1509 96.6892 19.5658 96.6892 18.8709V18.4686L94.184 18.8892C93.7086 18.9867 93.3551 19.1452 93.1234 19.3646C92.8918 19.5719 92.776 19.8522 92.776 20.2058Z" fill="#151411"/>
<defs>
<clipPath id="clip0_2_5828">
<rect width="32" height="32" fill="white" transform="translate(-0.000488281)"/>
</clipPath>
</defs>
</svg>
